<?xml version="1.0" encoding="UTF-8"?>
<svg id="Layer_1" xmlns="http://www.w3.org/2000/svg" version="1.1" xmlns:xlink="http://www.w3.org/1999/xlink" viewBox="0 0 44 20">
  <!-- Generator: Adobe Illustrator 29.5.1, SVG Export Plug-In . SVG Version: 2.1.0 Build 141)  -->
  <defs>
    <style>
      .st0 {
        fill: url(#New_Gradient_Swatch1);
      }

      .st1 {
        fill: url(#New_Gradient_Swatch);
      }
    </style>
    <linearGradient id="New_Gradient_Swatch" data-name="New Gradient Swatch" x1="15.3" y1="17.1" x2="31.2" y2="5" gradientTransform="translate(0 22) scale(1 -1)" gradientUnits="userSpaceOnUse">
      <stop offset="0" stop-color="#f8dbbd"/>
      <stop offset=".3" stop-color="#f8a07e"/>
      <stop offset=".6" stop-color="#db617d"/>
      <stop offset="1" stop-color="#9b348e"/>
    </linearGradient>
    <linearGradient id="New_Gradient_Swatch1" data-name="New Gradient Swatch" x1="6.4" y1="-1.8" x2="37.6" y2="21.8" gradientTransform="matrix(1,0,0,1,0,0)" xlink:href="#New_Gradient_Swatch"/>
  </defs>
  <path class="st1" d="M21,17.5l-5-2.9c-.3-.2-.6-.4-.7-.7s-.3-.6-.3-1v-5.8c0-.4,0-.7.3-1s.4-.5.7-.7l5-2.9c.3-.2.6-.3,1-.3s.7,0,1,.3l5,2.9c.3.2.6.4.7.7s.3.6.3,1v5.8c0,.4,0,.7-.3,1s-.4.5-.7.7l-5,2.9c-.3.2-.6.3-1,.3s-.7,0-1-.3ZM21,15.2v-4.6l-4-2.3v4.6l4,2.3ZM23,15.2l4-2.3v-4.6l-4,2.3v4.6ZM12,5v-3c0-.5.2-1,.6-1.4S13.4,0,14,0h3v2h-3v3h-2ZM17,20h-3c-.6,0-1-.2-1.4-.6s-.6-.9-.6-1.4v-3h2v3h3v2ZM27,20v-2h3v-3h2v3c0,.5-.2,1-.6,1.4s-.9.6-1.4.6h-3ZM30,5v-3h-3V0h3c.5,0,1,.2,1.4.6.4.4.6.9.6,1.4v3h-2ZM22,8.9l4-2.3-4-2.3-4,2.3,4,2.3Z"/>
  <path class="st0" d="M36,18v-2h3c.3,0,.5-.1.7-.3s.3-.4.3-.7v-2c0-.6.2-1.2.5-1.7s.8-.9,1.5-1.1v-.4c-.6-.2-1.1-.6-1.5-1.1s-.5-1.1-.5-1.7v-2c0-.3,0-.5-.3-.7s-.4-.3-.7-.3h-3V2h3c.8,0,1.5.3,2.1.9s.9,1.3.9,2.1v2c0,.3,0,.5.3.7s.4.3.7.3h1v4h-1c-.3,0-.5.1-.7.3s-.3.4-.3.7v2c0,.8-.3,1.5-.9,2.1s-1.3.9-2.1.9h-3ZM5,18c-.8,0-1.5-.3-2.1-.9s-.9-1.3-.9-2.1v-2c0-.3-.1-.5-.3-.7s-.4-.3-.7-.3h-1v-4h1c.3,0,.5,0,.7-.3s.3-.4.3-.7v-2c0-.8.3-1.5.9-2.1s1.3-.9,2.1-.9h3v2h-3c-.3,0-.5,0-.7.3s-.3.4-.3.7v2c0,.6-.2,1.2-.5,1.7-.4.5-.9.9-1.5,1.1v.4c.6.2,1.1.6,1.5,1.1s.5,1.1.5,1.7v2c0,.3,0,.5.3.7s.4.3.7.3h3v2h-3Z"/>
</svg>